<svg xmlns="http://www.w3.org/2000/svg" xmlns:xlink="http://www.w3.org/1999/xlink" width="500" zoomAndPan="magnify" viewBox="0 0 375 374.999991" height="500" preserveAspectRatio="xMidYMid meet" version="1.0"><defs><g/><clipPath id="ce40264585"><path d="M 261 132 L 366 132 L 366 210 L 261 210 Z M 261 132 " clip-rule="nonzero"/></clipPath><clipPath id="722a424b62"><path d="M 257.003906 143.851562 L 357.589844 119.472656 L 375.082031 191.632812 L 274.492188 216.011719 Z M 257.003906 143.851562 " clip-rule="nonzero"/></clipPath><clipPath id="b69b25492f"><path d="M 257.003906 143.851562 L 357.589844 119.472656 L 375.082031 191.632812 L 274.492188 216.011719 Z M 257.003906 143.851562 " clip-rule="nonzero"/></clipPath><clipPath id="18d66e033a"><path d="M 35 183 L 87.179688 183 L 87.179688 192 L 35 192 Z M 35 183 " clip-rule="nonzero"/></clipPath><clipPath id="4f856d4c74"><path d="M 45 163 L 87.179688 163 L 87.179688 172 L 45 172 Z M 45 163 " clip-rule="nonzero"/></clipPath><clipPath id="c54723f6f8"><path d="M 67 173 L 87.179688 173 L 87.179688 182 L 67 182 Z M 67 173 " clip-rule="nonzero"/></clipPath><clipPath id="c0d05c4132"><path d="M 22.679688 183 L 32 183 L 32 192 L 22.679688 192 Z M 22.679688 183 " clip-rule="nonzero"/></clipPath><clipPath id="7daf4f71a0"><path d="M 47 193 L 87.179688 193 L 87.179688 202 L 47 202 Z M 47 193 " clip-rule="nonzero"/></clipPath><clipPath id="62f9aaabcc"><path d="M 51 202 L 87.179688 202 L 87.179688 211 L 51 211 Z M 51 202 " clip-rule="nonzero"/></clipPath></defs><g fill="#8c52ff" fill-opacity="1"><g transform="translate(88.414165, 210.836814)"><g><path d="M 37.332031 -14.949219 C 39.113281 -21.144531 39.421875 -27.652344 39.113281 -34.078125 L 39.113281 -37.175781 C 39.113281 -39.035156 38.804688 -40.894531 38.648438 -42.753906 C 38.417969 -45.621094 38.105469 -49.335938 34.621094 -49.726562 C 33.769531 -49.800781 33.074219 -48.949219 33.074219 -48.175781 L 33.074219 -47.402344 C 31.136719 -48.484375 28.347656 -46.9375 28.425781 -44.613281 C 28.503906 -37.640625 28.582031 -30.75 28.117188 -23.855469 C 27.960938 -21.222656 28.117188 -16.34375 26.335938 -13.710938 C 25.25 -12.78125 23.933594 -12.160156 22.460938 -11.851562 C 21.066406 -11.929688 19.90625 -12.546875 18.820312 -13.398438 C 16.730469 -18.976562 15.335938 -24.785156 14.949219 -30.75 C 14.792969 -33.613281 14.792969 -36.558594 15.027344 -39.5 C 15.179688 -41.902344 16.421875 -44.769531 15.566406 -47.089844 C 14.871094 -48.796875 13.246094 -50.113281 11.386719 -50.34375 C 6.738281 -51.042969 4.335938 -46.316406 3.484375 -42.445312 C 1.160156 -32.453125 1.550781 -21.609375 5.34375 -12.003906 C 5.808594 -10.84375 6.894531 -10.457031 7.824219 -10.535156 C 8.675781 -8.753906 9.757812 -7.046875 11.074219 -5.5 C 14.949219 -1.007812 22.152344 1.859375 27.496094 -1.550781 C 28.8125 -2.167969 30.207031 -3.40625 30.902344 -4.183594 C 31.058594 -4.335938 31.214844 -4.492188 31.445312 -4.648438 C 34.390625 -7.359375 36.171875 -11.152344 37.332031 -14.949219 Z M 14.714844 -42.210938 C 13.554688 -35.394531 13.632812 -28.425781 14.871094 -21.609375 C 14.792969 -21.6875 14.714844 -21.6875 14.640625 -21.6875 C 14.40625 -22.617188 14.175781 -23.625 14.019531 -24.628906 C 13.011719 -29.742188 13.011719 -35.085938 13.632812 -40.351562 C 13.941406 -40.972656 14.097656 -41.667969 14.25 -42.367188 C 14.328125 -42.210938 14.5625 -42.132812 14.714844 -42.210938 Z M 14.714844 -42.210938 "/></g></g></g><g fill="#8c52ff" fill-opacity="1"><g transform="translate(120.864577, 210.836814)"><g><path d="M 44.226562 -45.621094 C 46.085938 -46.394531 46.164062 -49.335938 44.378906 -50.34375 C 44.226562 -50.5 44.070312 -50.578125 43.917969 -50.65625 C 44.070312 -50.730469 44.304688 -50.730469 44.457031 -50.730469 C 45.234375 -50.886719 45 -52.203125 44.304688 -52.125 C 43.140625 -51.972656 41.980469 -51.894531 40.816406 -51.738281 C 40.351562 -51.816406 39.886719 -51.738281 39.5 -51.738281 C 38.726562 -51.660156 37.953125 -51.582031 37.101562 -51.429688 C 26.335938 -50.5 15.492188 -50.265625 4.648438 -50.886719 C 4.414062 -50.964844 4.335938 -50.5 4.570312 -50.5 C 8.753906 -49.800781 12.933594 -49.335938 17.117188 -49.105469 C 17.117188 -49.027344 17.039062 -48.949219 17.039062 -48.875 C 12.78125 -48.875 8.597656 -49.183594 4.335938 -49.570312 C 2.632812 -49.726562 1.085938 -48.253906 0.621094 -46.703125 C 0.15625 -44.84375 1.085938 -42.988281 2.632812 -42.132812 C 3.097656 -40.894531 4.105469 -39.8125 5.113281 -39.113281 C 6.507812 -38.261719 8.210938 -38.03125 9.835938 -37.796875 C 11.851562 -37.640625 13.941406 -37.566406 16.03125 -37.566406 C 17.039062 -37.566406 18.046875 -37.566406 19.054688 -37.566406 L 19.054688 -35.085938 L 18.898438 -31.679688 C 18.742188 -27.652344 18.511719 -23.625 18.277344 -19.671875 C 18.125 -15.722656 18.046875 -11.695312 18.277344 -7.746094 C 18.433594 -4.726562 19.132812 -1.160156 22.382812 -0.15625 C 24.011719 0.308594 25.945312 -0.621094 26.488281 -2.324219 C 27.03125 -3.871094 27.109375 -6.042969 27.417969 -7.433594 L 27.417969 -4.492188 C 27.339844 -3.40625 27.339844 -2.324219 27.261719 -1.238281 L 27.261719 -1.085938 C 28.65625 -2.167969 28.96875 -4.027344 29.121094 -5.886719 C 29.046875 -8.597656 28.890625 -11.308594 28.8125 -14.019531 C 28.8125 -18.742188 28.734375 -23.46875 28.734375 -28.191406 C 28.734375 -31.601562 28.8125 -35.007812 28.8125 -38.417969 C 32.761719 -38.960938 36.636719 -39.65625 40.585938 -40.429688 C 40.816406 -40.429688 40.972656 -40.585938 41.128906 -40.742188 C 41.515625 -40.816406 41.980469 -40.972656 42.289062 -41.207031 C 43.527344 -42.058594 43.839844 -43.453125 43.917969 -44.84375 C 44.070312 -45.078125 44.148438 -45.308594 44.226562 -45.621094 Z M 9.835938 -39.65625 C 7.976562 -39.734375 5.964844 -40.277344 4.726562 -41.4375 C 7.746094 -40.507812 10.84375 -39.964844 13.941406 -39.65625 C 12.546875 -39.578125 11.152344 -39.578125 9.835938 -39.65625 Z M 9.835938 -39.65625 "/></g></g></g><g fill="#8c52ff" fill-opacity="1"><g transform="translate(158.736421, 210.836814)"><g><path d="M 37.332031 -29.355469 C 35.9375 -31.367188 33.304688 -32.296875 31.136719 -30.980469 C 28.8125 -29.664062 28.503906 -27.03125 29.507812 -24.785156 C 29.972656 -23.699219 30.050781 -22.539062 30.128906 -21.300781 C 30.207031 -18.589844 29.898438 -15.644531 28.503906 -13.167969 C 28.039062 -12.238281 27.261719 -11.308594 26.488281 -10.609375 C 24.398438 -8.753906 21.6875 -7.746094 18.820312 -7.667969 C 18.511719 -7.667969 18.125 -7.746094 17.8125 -7.746094 C 12.78125 -8.054688 10.070312 -12.390625 8.597656 -16.960938 C 8.054688 -18.667969 7.746094 -20.449219 7.824219 -22.304688 C 7.824219 -22.695312 7.824219 -23.160156 7.898438 -23.546875 C 7.898438 -24.011719 7.976562 -24.011719 8.054688 -24.628906 C 9.292969 -31.214844 12.160156 -36.480469 17.425781 -40.507812 C 17.8125 -40.742188 18.125 -40.972656 18.433594 -41.207031 L 18.898438 -26.257812 C 18.976562 -23.777344 18.898438 -21.222656 19.984375 -18.820312 C 20.835938 -16.960938 22.925781 -15.644531 24.941406 -15.878906 C 26.566406 -16.03125 26.257812 -18.433594 24.628906 -18.125 C 22.382812 -17.738281 21.300781 -20.214844 20.835938 -21.996094 L 20.835938 -22.230469 L 21.066406 -22.230469 C 21.222656 -21.765625 21.378906 -21.222656 21.6875 -20.757812 C 22.152344 -19.828125 22.847656 -19.054688 23.855469 -18.742188 C 24.011719 -18.742188 24.242188 -18.667969 24.476562 -18.742188 C 24.550781 -18.589844 24.707031 -18.511719 24.941406 -18.355469 C 25.328125 -18.125 25.945312 -18.355469 26.023438 -18.820312 C 26.257812 -19.828125 26.101562 -20.914062 26.101562 -21.996094 C 26.023438 -23.234375 25.945312 -24.550781 25.945312 -25.871094 L 25.714844 -33.226562 C 25.636719 -35.707031 25.558594 -43.296875 25.714844 -44.613281 C 25.792969 -45.773438 25.871094 -46.703125 25.40625 -47.632812 C 25.40625 -48.949219 24.398438 -50.113281 22.769531 -50.265625 C 20.914062 -50.421875 18.976562 -49.878906 17.425781 -48.949219 C 15.800781 -48.019531 14.25 -47.015625 12.78125 -45.929688 C 9.605469 -43.683594 6.195312 -40.199219 3.871094 -37.101562 C 0.386719 -32.609375 -0.773438 -27.03125 -0.851562 -21.378906 C -0.851562 -19.671875 -0.621094 -17.96875 -0.308594 -16.34375 C 1.160156 -9.527344 6.195312 -3.871094 12.546875 -1.316406 C 19.054688 1.316406 26.722656 -0.386719 31.988281 -4.648438 C 35.242188 -7.203125 37.175781 -11.308594 38.183594 -15.257812 C 39.347656 -19.59375 39.886719 -25.40625 37.332031 -29.355469 Z M 19.984375 -42.289062 C 19.75 -39.421875 19.75 -36.558594 19.90625 -33.691406 L 19.519531 -33.691406 C 19.285156 -36.25 18.976562 -38.804688 18.742188 -41.4375 C 19.132812 -41.667969 19.59375 -41.980469 19.984375 -42.289062 Z M 29.433594 -24.941406 C 29.433594 -25.015625 29.355469 -25.09375 29.355469 -25.09375 C 29.355469 -25.015625 29.433594 -25.015625 29.433594 -24.941406 Z M 29.507812 -24.785156 C 29.507812 -24.863281 29.433594 -24.863281 29.433594 -24.941406 C 29.433594 -24.863281 29.433594 -24.863281 29.507812 -24.785156 Z M 29.507812 -24.785156 "/></g></g></g><g fill="#8c52ff" fill-opacity="1"><g transform="translate(191.961323, 210.836814)"><g><path d="M 39.578125 -24.320312 C 41.515625 -26.410156 41.207031 -30.4375 38.183594 -31.445312 C 37.488281 -31.601562 36.867188 -31.832031 36.25 -31.910156 L 36.25 -33.613281 C 36.324219 -35.472656 36.324219 -37.332031 36.25 -39.113281 C 36.25 -39.347656 36.324219 -39.578125 36.25 -39.8125 C 36.09375 -42.523438 36.402344 -45.929688 34.929688 -48.332031 C 33.382812 -50.964844 30.128906 -51.042969 27.804688 -49.492188 C 25.171875 -47.710938 25.636719 -44.613281 26.101562 -41.902344 C 26.257812 -38.726562 26.488281 -35.472656 26.644531 -32.296875 C 25.792969 -32.21875 25.015625 -32.066406 24.164062 -31.988281 C 21.453125 -31.757812 18.742188 -31.523438 16.03125 -31.136719 L 15.878906 -31.136719 C 15.644531 -34.621094 15.414062 -38.183594 15.179688 -41.746094 L 14.949219 -45.464844 C 14.871094 -46.164062 14.5625 -47.632812 13.785156 -47.945312 C 13.476562 -48.097656 13.246094 -48.175781 12.933594 -48.175781 L 12.933594 -48.332031 C 12.855469 -50.113281 10.921875 -51.351562 9.292969 -51.121094 C 7.589844 -50.886719 6.273438 -49.261719 6.507812 -47.480469 C 7.28125 -41.59375 7.433594 -35.550781 7.511719 -29.585938 L 7.359375 -29.585938 C 7.28125 -29.585938 7.203125 -29.433594 7.125 -29.355469 C 6.894531 -32.21875 6.582031 -35.242188 6.273438 -38.105469 C 5.886719 -41.902344 5.652344 -45.773438 4.878906 -49.492188 C 4.878906 -49.648438 4.648438 -49.648438 4.648438 -49.492188 C 4.492188 -45.851562 4.800781 -42.132812 4.878906 -38.496094 C 5.035156 -35.320312 5.113281 -32.144531 5.1875 -29.046875 C 4.027344 -28.65625 3.019531 -28.039062 2.402344 -27.03125 C 1.9375 -26.644531 1.472656 -26.179688 1.160156 -25.714844 C -0.695312 -23.160156 2.015625 -19.984375 4.648438 -21.066406 L 5.421875 -21.378906 C 5.652344 -15.644531 5.730469 -9.835938 6.195312 -4.105469 C 6.195312 -3.5625 6.738281 -3.253906 7.203125 -3.253906 C 7.359375 -2.867188 7.511719 -2.476562 7.746094 -2.089844 C 9.21875 0.621094 12.082031 0.308594 14.019531 -1.703125 C 14.949219 -2.710938 15.179688 -4.492188 15.335938 -5.808594 C 15.414062 -6.429688 15.414062 -7.125 15.492188 -7.746094 L 15.492188 -7.976562 C 15.957031 -10.457031 15.878906 -13.089844 15.878906 -15.644531 C 15.878906 -17.890625 15.800781 -20.136719 15.722656 -22.382812 C 18.667969 -22.539062 21.6875 -22.617188 24.628906 -22.617188 C 25.171875 -22.617188 25.636719 -22.617188 26.179688 -22.617188 L 26.179688 -19.75 C 26.179688 -16.808594 26.257812 -13.785156 26.410156 -10.84375 C 26.488281 -7.824219 26.644531 -4.878906 26.875 -1.859375 C 26.953125 -0.851562 27.109375 0.464844 27.804688 1.238281 C 28.65625 2.324219 30.050781 2.789062 31.445312 1.9375 C 31.832031 1.703125 32.21875 1.394531 32.453125 1.085938 C 32.53125 1.085938 32.53125 1.085938 32.53125 1.007812 C 34.15625 0.078125 34.464844 -2.554688 34.699219 -4.261719 C 34.929688 -6.117188 35.085938 -7.976562 35.242188 -9.914062 C 35.472656 -13.710938 35.707031 -17.582031 35.859375 -21.378906 C 37.566406 -21.144531 39.347656 -22.230469 39.578125 -24.089844 Z M 18.511719 -24.707031 C 21.066406 -24.863281 23.625 -24.785156 26.179688 -24.707031 L 26.179688 -24.320312 C 25.714844 -24.320312 25.171875 -24.320312 24.628906 -24.398438 C 21.6875 -24.398438 18.667969 -24.242188 15.644531 -23.933594 L 15.644531 -24.242188 C 15.800781 -24.320312 15.878906 -24.476562 15.957031 -24.628906 C 16.808594 -24.628906 17.660156 -24.707031 18.511719 -24.707031 Z M 18.511719 -24.707031 "/></g></g></g><g fill="#8c52ff" fill-opacity="1"><g transform="translate(225.960719, 210.836814)"><g><path d="M 28.347656 -2.324219 C 30.128906 3.253906 35.859375 3.097656 35.007812 -3.871094 C 34.390625 -8.519531 33.074219 -14.792969 32.066406 -19.363281 C 36.324219 -22.074219 35.472656 -29.046875 29.585938 -29.742188 C 29.046875 -34.390625 28.582031 -46.085938 28.503906 -45.308594 C 28.191406 -42.753906 28.039062 -40.042969 27.960938 -37.410156 C 27.882812 -37.410156 27.882812 -37.410156 27.804688 -37.488281 C 27.496094 -40.507812 27.1875 -43.683594 26.953125 -46.78125 C 26.722656 -49.261719 25.09375 -50.808594 22.847656 -50.964844 C 22.230469 -52.203125 20.679688 -53.132812 19.363281 -53.054688 C 15.414062 -52.976562 13.863281 -48.175781 12.46875 -45.15625 C 10.457031 -40.351562 9.21875 -35.320312 8.132812 -30.207031 C -1.085938 -28.8125 -1.085938 -20.371094 3.871094 -19.132812 C 3.949219 -18.898438 3.871094 -18.589844 3.796875 -18.433594 C 4.414062 -18.433594 5.1875 -18.511719 5.886719 -18.589844 C 4.726562 -14.097656 3.949219 -9.605469 3.332031 -5.035156 C 2.324219 2.246094 11.929688 3.332031 12.546875 -3.71875 L 13.011719 -7.203125 C 13.011719 -7.203125 14.328125 -15.101562 15.335938 -18.898438 L 16.03125 -18.898438 C 14.5625 -14.328125 13.863281 -9.605469 13.476562 -4.957031 C 13.398438 -4.027344 14.714844 -4.027344 14.714844 -4.957031 C 15.101562 -9.683594 15.957031 -14.25 17.117188 -18.898438 L 23.160156 -18.976562 C 23.777344 -16.1875 26.875 -2.867188 28.347656 -2.324219 Z M 16.886719 -28.96875 C 17.582031 -32.609375 18.511719 -35.707031 19.75 -40.042969 C 20.523438 -36.480469 20.914062 -31.214844 21.222656 -29.277344 C 20.136719 -29.199219 17.96875 -29.121094 16.886719 -28.96875 Z M 16.886719 -28.96875 "/></g></g></g><g fill="#8c52ff" fill-opacity="1"><g transform="translate(255.23572, 210.836814)"><g><path d="M 37.101562 -28.117188 C 37.023438 -29.972656 37.023438 -31.832031 37.101562 -33.769531 C 37.410156 -37.410156 38.183594 -41.207031 37.71875 -44.84375 C 37.488281 -46.9375 36.171875 -48.640625 33.925781 -48.640625 C 31.910156 -48.640625 30.128906 -46.9375 30.128906 -44.84375 C 30.207031 -43.527344 30.207031 -42.210938 30.207031 -40.894531 L 29.820312 -41.28125 C 28.269531 -42.675781 26.566406 -43.839844 24.863281 -44.921875 C 21.222656 -47.324219 17.425781 -49.027344 13.246094 -50.265625 C 12.78125 -50.421875 12.390625 -50.421875 12.082031 -50.34375 C 10.457031 -50.886719 8.753906 -51.351562 7.046875 -51.507812 C 4.414062 -51.738281 2.167969 -50.113281 1.550781 -47.554688 C 0.929688 -45 2.324219 -42.753906 3.71875 -40.816406 C 6.582031 -37.101562 9.914062 -33.847656 13.554688 -30.902344 L 14.714844 -29.972656 C 15.800781 -28.890625 16.886719 -27.804688 17.890625 -26.644531 C 20.523438 -23.933594 23.003906 -21.144531 25.40625 -18.277344 C 26.179688 -17.347656 26.953125 -16.421875 27.652344 -15.492188 C 27.804688 -15.027344 28.039062 -14.640625 28.191406 -14.25 C 28.503906 -13.632812 29.199219 -12.160156 28.8125 -11.308594 C 28.8125 -11.074219 28.8125 -10.84375 28.582031 -10.609375 C 27.960938 -9.683594 26.410156 -9.527344 25.40625 -9.449219 C 23.699219 -9.292969 22.074219 -9.292969 20.449219 -9.449219 C 19.519531 -9.527344 18.589844 -9.683594 17.660156 -9.992188 C 16.730469 -10.6875 15.878906 -11.539062 15.101562 -12.316406 C 13.710938 -13.785156 12.78125 -15.722656 12.082031 -17.582031 C 10.300781 -22.695312 10.070312 -28.191406 8.441406 -33.304688 C 7.824219 -35.164062 6.273438 -35.859375 4.414062 -35.628906 C 2.867188 -35.394531 1.703125 -33.925781 1.394531 -32.53125 C 0.929688 -30.285156 1.394531 -27.882812 1.703125 -25.714844 C 2.015625 -23.234375 2.324219 -20.757812 2.941406 -18.355469 C 4.105469 -14.097656 4.957031 -9.757812 5.421875 -5.421875 C 5.578125 -4.648438 5.808594 -3.949219 6.273438 -3.40625 C 6.507812 -2.015625 7.28125 -0.695312 8.132812 0.15625 C 8.90625 0.929688 10.144531 0.929688 10.921875 0.15625 C 11.929688 -0.695312 12.46875 -1.9375 12.78125 -3.253906 C 14.25 -2.324219 15.878906 -1.625 17.582031 -1.238281 C 20.058594 -0.542969 23.003906 -0.230469 25.636719 -0.621094 L 25.871094 -0.621094 C 30.75 -0.851562 36.015625 -4.492188 36.171875 -9.527344 C 36.480469 -11.539062 36.015625 -13.632812 35.164062 -15.566406 C 34.699219 -17.660156 33.613281 -19.59375 32.21875 -21.378906 C 30.207031 -23.933594 27.882812 -26.335938 25.636719 -28.734375 C 23.3125 -31.292969 20.835938 -33.769531 18.355469 -36.171875 L 15.179688 -39.191406 C 17.195312 -38.726562 19.285156 -38.03125 21.222656 -37.175781 C 24.941406 -35.472656 28.347656 -33.074219 30.59375 -29.742188 C 30.671875 -29.742188 30.671875 -29.664062 30.75 -29.664062 C 31.214844 -26.023438 32.53125 -20.914062 36.324219 -21.84375 C 37.410156 -22.152344 38.03125 -23.3125 37.71875 -24.320312 C 37.488281 -25.636719 37.175781 -26.800781 37.101562 -28.117188 Z M 37.101562 -28.117188 "/></g></g></g><g clip-path="url(#ce40264585)"><g clip-path="url(#722a424b62)"><g clip-path="url(#b69b25492f)"><path fill="#8c52ff" d="M 363.628906 153.59375 C 364.003906 155.019531 364.792969 155.867188 365.441406 156.347656 C 364.464844 157.671875 363.480469 158.988281 362.492188 160.300781 C 361.417969 159.488281 359.667969 157.773438 358.902344 154.875 C 357.085938 157.304688 355.253906 159.714844 353.394531 162.109375 C 351.273438 164.84375 349.121094 167.554688 346.9375 170.246094 C 344.753906 172.933594 342.535156 175.59375 340.277344 178.226562 C 338.015625 180.859375 335.714844 183.460938 333.359375 186.015625 C 331 188.570312 328.585938 191.085938 326.085938 193.53125 C 323.585938 195.972656 321.003906 198.351562 318.265625 200.597656 C 315.523438 202.839844 312.648438 204.976562 309.375 206.730469 C 307.734375 207.597656 305.984375 208.375 304.007812 208.855469 C 303.015625 209.085938 301.960938 209.242188 300.847656 209.226562 C 300.289062 209.21875 299.714844 209.160156 299.140625 209.058594 C 298.566406 208.941406 297.992188 208.773438 297.429688 208.546875 C 296.875 208.3125 296.339844 208.023438 295.84375 207.683594 C 295.394531 207.339844 294.9375 207.019531 294.539062 206.601562 C 294.113281 206.214844 293.761719 205.757812 293.40625 205.308594 C 293.246094 205.070312 293.09375 204.828125 292.9375 204.585938 C 292.859375 204.46875 292.792969 204.34375 292.730469 204.214844 L 292.539062 203.835938 C 292.050781 202.824219 291.71875 201.761719 291.558594 200.730469 L 291.488281 200.339844 L 291.445312 199.957031 C 291.417969 199.699219 291.386719 199.445312 291.371094 199.191406 C 291.355469 198.691406 291.316406 198.179688 291.34375 197.695312 C 291.386719 195.722656 291.691406 193.863281 292.109375 192.078125 C 292.527344 190.289062 293.058594 188.566406 293.640625 186.878906 C 294.8125 183.507812 296.191406 180.28125 297.628906 177.109375 C 299.066406 173.9375 300.566406 170.820312 302.050781 167.714844 C 303.539062 164.613281 305.011719 161.523438 306.382812 158.421875 C 307.746094 155.320312 309.03125 152.195312 309.953125 149.070312 C 310.414062 147.511719 310.773438 145.953125 310.949219 144.449219 L 310.992188 143.894531 L 311.015625 143.621094 L 311.023438 143.351562 C 311.023438 143.171875 311.035156 142.992188 311.03125 142.8125 L 311.011719 142.296875 C 310.960938 141.625 310.847656 140.996094 310.65625 140.464844 C 310.453125 139.941406 310.183594 139.515625 309.832031 139.152344 C 309.742188 139.0625 309.664062 138.960938 309.546875 138.890625 L 309.394531 138.765625 C 309.339844 138.726562 309.296875 138.679688 309.226562 138.640625 C 309.097656 138.5625 308.96875 138.484375 308.84375 138.398438 L 308.4375 138.195312 C 307.886719 137.941406 307.289062 137.765625 306.652344 137.667969 C 306.015625 137.566406 305.328125 137.570312 304.628906 137.617188 C 303.21875 137.722656 301.734375 138.121094 300.265625 138.652344 C 298.796875 139.199219 297.339844 139.890625 295.90625 140.667969 C 293.042969 142.238281 290.285156 144.136719 287.617188 146.167969 C 284.949219 148.207031 282.371094 150.394531 279.859375 152.671875 C 277.347656 154.949219 274.902344 157.308594 272.519531 159.734375 C 271.328125 160.949219 270.152344 162.179688 268.992188 163.421875 C 268.414062 164.042969 267.835938 164.667969 267.269531 165.296875 C 266.703125 165.921875 266.125 166.566406 265.59375 167.179688 L 261.882812 163.988281 C 262.480469 163.300781 263.050781 162.664062 263.640625 162.011719 C 264.226562 161.363281 264.820312 160.722656 265.414062 160.085938 C 266.601562 158.808594 267.808594 157.550781 269.03125 156.308594 C 271.472656 153.820312 273.984375 151.394531 276.574219 149.042969 C 279.167969 146.695312 281.84375 144.425781 284.648438 142.28125 C 287.457031 140.140625 290.386719 138.117188 293.566406 136.375 C 295.160156 135.507812 296.816406 134.714844 298.578125 134.0625 C 300.34375 133.425781 302.210938 132.902344 304.242188 132.738281 C 305.253906 132.667969 306.300781 132.660156 307.367188 132.828125 C 308.429688 132.988281 309.503906 133.292969 310.515625 133.765625 C 310.765625 133.890625 311.015625 134.011719 311.261719 134.144531 L 311.96875 134.589844 C 312.085938 134.660156 312.203125 134.757812 312.324219 134.847656 L 312.675781 135.125 C 312.914062 135.300781 313.125 135.523438 313.335938 135.738281 C 314.1875 136.605469 314.835938 137.675781 315.242188 138.761719 C 315.640625 139.851562 315.816406 140.9375 315.890625 141.976562 L 315.925781 142.753906 C 315.925781 143.007812 315.917969 143.253906 315.914062 143.507812 L 315.902344 143.882812 L 315.871094 144.25 L 315.8125 144.980469 C 315.589844 146.90625 315.160156 148.707031 314.648438 150.453125 C 313.613281 153.933594 312.265625 157.191406 310.859375 160.394531 C 309.449219 163.59375 307.953125 166.71875 306.464844 169.828125 C 304.976562 172.9375 303.488281 176.027344 302.085938 179.128906 C 300.679688 182.226562 299.351562 185.339844 298.261719 188.480469 C 297.722656 190.046875 297.242188 191.621094 296.875 193.1875 C 296.503906 194.75 296.265625 196.308594 296.234375 197.785156 C 296.210938 198.15625 296.246094 198.507812 296.253906 198.867188 C 296.265625 199.042969 296.289062 199.214844 296.304688 199.386719 L 296.332031 199.648438 L 296.378906 199.890625 C 296.476562 200.5625 296.679688 201.15625 296.9375 201.691406 L 297.035156 201.890625 C 297.066406 201.960938 297.097656 202.023438 297.140625 202.082031 C 297.222656 202.203125 297.300781 202.324219 297.375 202.445312 C 297.5625 202.664062 297.722656 202.902344 297.945312 203.089844 C 298.136719 203.304688 298.398438 203.46875 298.621094 203.65625 C 298.839844 203.804688 299.0625 203.921875 299.296875 204.027344 C 299.539062 204.121094 299.789062 204.195312 300.058594 204.25 C 300.332031 204.296875 300.617188 204.332031 300.921875 204.332031 C 301.527344 204.34375 302.195312 204.253906 302.878906 204.09375 C 304.253906 203.761719 305.683594 203.152344 307.082031 202.410156 C 309.886719 200.910156 312.578125 198.929688 315.164062 196.816406 C 317.75 194.691406 320.242188 192.402344 322.664062 190.03125 C 325.089844 187.660156 327.449219 185.203125 329.761719 182.699219 C 332.074219 180.191406 334.335938 177.632812 336.5625 175.039062 C 338.789062 172.445312 340.980469 169.816406 343.140625 167.160156 C 345.300781 164.5 347.429688 161.816406 349.527344 159.109375 C 351.367188 156.738281 353.1875 154.351562 354.980469 151.949219 C 352 152.015625 349.875 150.785156 348.800781 149.976562 C 349.757812 148.710938 350.707031 147.4375 351.648438 146.164062 C 352.292969 146.640625 353.335938 147.15625 354.792969 147.105469 C 356.246094 147.058594 358.140625 146.441406 360.425781 144.664062 L 364.265625 147.371094 C 363.285156 150.183594 363.25 152.164062 363.628906 153.59375 Z M 363.628906 153.59375 " fill-opacity="1" fill-rule="nonzero"/></g></g></g><g clip-path="url(#18d66e033a)"><path fill="#8c52ff" d="M 109.445312 183.402344 L 67.929688 183.402344 L 66.15625 186.46875 L 62.050781 186.46875 L 60.277344 183.402344 C 58.75 183.402344 39.597656 183.402344 38.066406 183.402344 L 35.773438 187.375 L 38.066406 191.347656 C 39.597656 191.347656 58.75 191.347656 60.277344 191.347656 L 62.050781 188.28125 L 66.15625 188.28125 L 67.929688 191.347656 L 109.445312 191.347656 C 109.902344 188.722656 109.902344 186.035156 109.445312 183.402344 Z M 109.445312 183.402344 " fill-opacity="1" fill-rule="nonzero"/></g><g clip-path="url(#4f856d4c74)"><path fill="#8c52ff" d="M 52.445312 171.820312 L 54.21875 168.757812 L 58.324219 168.757812 L 60.097656 171.820312 L 103.867188 171.820312 C 95.640625 162.546875 86.414062 163.871094 75.289062 163.871094 L 60.097656 163.871094 L 58.324219 166.9375 L 54.21875 166.9375 L 52.445312 163.871094 L 47.859375 163.871094 L 45.566406 167.84375 L 47.859375 171.8125 L 52.445312 171.8125 Z M 52.445312 171.820312 " fill-opacity="1" fill-rule="nonzero"/></g><g clip-path="url(#c54723f6f8)"><path fill="#8c52ff" d="M 79.867188 176.707031 L 75.761719 176.707031 L 73.988281 173.640625 L 69.402344 173.640625 L 67.109375 177.613281 L 69.402344 181.585938 L 73.988281 181.585938 L 75.761719 178.519531 L 79.867188 178.519531 L 81.640625 181.585938 L 109.058594 181.585938 C 108.316406 178.683594 107.035156 175.996094 105.324219 173.632812 L 81.640625 173.632812 Z M 79.867188 176.707031 " fill-opacity="1" fill-rule="nonzero"/></g><g clip-path="url(#c0d05c4132)"><path fill="#8c52ff" d="M 24.972656 183.402344 L 22.679688 187.375 L 24.972656 191.355469 L 29.566406 191.355469 L 31.859375 187.375 L 29.566406 183.402344 Z M 24.972656 183.402344 " fill-opacity="1" fill-rule="nonzero"/></g><path fill="#8c52ff" d="M 54.015625 177.613281 L 56.308594 181.585938 L 60.902344 181.585938 L 63.195312 177.613281 L 60.902344 173.640625 L 56.308594 173.640625 Z M 54.015625 177.613281 " fill-opacity="1" fill-rule="nonzero"/><path fill="#8c52ff" d="M 40.644531 202.929688 L 38.34375 206.90625 L 40.644531 210.878906 L 45.230469 210.878906 L 47.523438 206.90625 L 45.230469 202.929688 Z M 40.644531 202.929688 " fill-opacity="1" fill-rule="nonzero"/><g clip-path="url(#7daf4f71a0)"><path fill="#8c52ff" d="M 60.277344 196.230469 L 56.171875 196.230469 L 54.402344 193.167969 L 49.816406 193.167969 L 47.523438 197.136719 L 49.816406 201.109375 L 54.402344 201.109375 L 56.171875 198.042969 L 60.277344 198.042969 L 62.050781 201.109375 L 105.316406 201.109375 C 107.027344 198.746094 108.308594 196.058594 109.050781 193.160156 C 94.6875 193.160156 76.40625 193.160156 62.042969 193.160156 Z M 60.277344 196.230469 " fill-opacity="1" fill-rule="nonzero"/></g><g clip-path="url(#62f9aaabcc)"><path fill="#8c52ff" d="M 72.035156 206 L 67.929688 206 L 66.15625 202.9375 C 62.019531 202.9375 57.875 202.9375 53.730469 202.9375 L 51.4375 206.90625 L 53.730469 210.878906 C 57.875 210.878906 62.011719 210.878906 66.15625 210.878906 L 67.929688 207.8125 L 72.035156 207.8125 L 73.808594 210.878906 C 85.554688 210.878906 95.425781 212.445312 103.867188 202.929688 L 73.808594 202.929688 Z M 72.035156 206 " fill-opacity="1" fill-rule="nonzero"/></g></svg>